# Blender v2.79 (sub 0) OBJ File: ''
# www.blender.org
mtllib v.mtl
o cf_v_means_venom_Untitled.001
v 0.107519 0.284048 0.270890
v 0.116376 0.265279 0.269453
v 0.225255 0.331839 0.242947
v 0.212184 0.350357 0.241024
v 0.318001 0.387063 0.114111
v 0.309215 0.410007 0.116770
v 0.358161 0.414393 -0.025981
v 0.354962 0.436629 -0.025817
v 0.378422 0.398305 -0.233534
v 0.373426 0.424032 -0.239113
v 0.308048 0.331176 -0.398671
v 0.301581 0.356132 -0.400049
v 0.157230 0.225670 -0.480415
v 0.144521 0.249112 -0.484907
v -0.029409 0.120943 -0.430335
v -0.044611 0.143743 -0.432833
v -0.132939 0.029705 -0.244504
v -0.142898 0.054146 -0.239167
v -0.170169 -0.007639 -0.086254
v -0.172565 0.016828 -0.085350
v -0.199403 0.235980 -0.150350
v -0.198688 0.257663 -0.157639
v -0.202990 0.240648 -0.066098
v -0.202426 0.266362 -0.061897
v -0.196015 0.232052 0.015857
v -0.192958 0.257525 0.019080
v -0.171022 0.212958 0.122187
v -0.169659 0.243384 0.135667
v -0.172194 0.030958 0.073213
v -0.178298 0.053125 0.066854
v -0.157171 0.069482 0.137250
v -0.163260 0.085992 0.123049
v -0.182499 0.194463 -0.249446
v -0.184888 0.220077 -0.258731
v -0.138244 0.134944 -0.323257
v -0.132530 0.150208 -0.344567
v 0.048654 0.215594 0.254610
v 0.026328 0.247670 0.257135
v -0.130644 0.284643 0.192491
v -0.124981 0.106298 0.183819
v -0.087179 0.099394 0.216245
v 0.039650 0.192660 0.254610
v -0.027432 0.267894 0.244913
v -0.003551 0.135619 0.245092
v -0.161220 0.159205 0.136186
v -0.145072 0.126456 0.156770
v 0.062567 0.255097 0.270287
v 0.074738 0.237006 0.268446
v -0.167747 0.211271 0.131774
v -0.169458 0.240443 0.146243
v -0.103028 0.185071 0.209877
v -0.131257 0.279904 0.197325
v -0.029180 0.263457 0.250726
v -0.020803 0.193736 0.246032
v 0.042630 0.214054 0.260210
v 0.021173 0.244416 0.262596
v -0.159869 0.160167 0.147180
v 0.034124 0.192389 0.260210
v -0.142869 0.128525 0.166624
v -0.006724 0.138506 0.251553
v -0.090307 0.104287 0.221253
v -0.123747 0.112448 0.190300
v -0.080418 0.282811 0.226986
v -0.084043 0.277918 0.231547
v -0.057885 0.191771 0.226137
v -0.044718 0.112840 0.241878
v -0.044000 0.108449 0.235421
v -0.156190 0.268268 0.162374
v -0.157092 0.263795 0.167924
v -0.085642 0.095117 -0.393746
v -0.098898 0.118526 -0.393335
v -0.103786 0.072075 -0.339532
v -0.116075 0.095787 -0.337677
v 0.168726 0.297281 0.263355
v 0.156705 0.314142 0.263176
v 0.274302 0.360325 0.185771
v 0.264966 0.381642 0.187530
v 0.041290 0.234425 0.256118
v 0.036162 0.231519 0.261473
v 0.376687 0.415816 -0.133836
v 0.372557 0.439862 -0.136647
v -0.139543 0.099490 0.166607
v -0.145631 0.115999 0.152405
v 0.052450 0.162605 -0.473372
v 0.038608 0.185753 -0.476958
v 0.356708 0.371017 -0.314586
v 0.347709 0.397642 -0.317871
v -0.178840 0.219520 0.088424
v -0.181302 0.246935 0.095629
v 0.226998 0.272149 -0.458018
v 0.217661 0.296407 -0.460828
v -0.171354 0.001261 -0.014519
v -0.175920 0.024383 -0.017865
v 0.107808 0.283966 0.274923
v 0.116665 0.265197 0.273486
v 0.169415 0.297784 0.267293
v 0.157393 0.314645 0.267114
v 0.226916 0.332960 0.246352
v 0.213845 0.351478 0.244428
v 0.277075 0.361534 0.188422
v 0.267740 0.382851 0.190180
v 0.321433 0.388041 0.115936
v 0.312647 0.410986 0.118595
v 0.361997 0.415178 -0.024995
v 0.358798 0.437414 -0.024831
v 0.380653 0.416508 -0.133537
v 0.376523 0.440553 -0.136348
v 0.382267 0.399090 -0.234277
v 0.377271 0.424819 -0.239854
v 0.360186 0.371882 -0.316420
v 0.351187 0.398505 -0.319706
v 0.310764 0.331820 -0.401495
v 0.304297 0.356775 -0.402873
v 0.228715 0.272350 -0.461642
v 0.219378 0.296609 -0.464452
v 0.157908 0.225349 -0.484342
v 0.145200 0.248789 -0.488835
v 0.051865 0.161645 -0.477189
v 0.038024 0.184794 -0.480775
v -0.030932 0.119678 -0.433861
v -0.046134 0.142477 -0.436359
v -0.088157 0.093653 -0.396329
v -0.101526 0.117270 -0.395874
v -0.136589 0.028604 -0.245812
v -0.146549 0.053045 -0.240475
v -0.174090 -0.008353 -0.086795
v -0.176487 0.016114 -0.085892
v -0.203392 0.235655 -0.150476
v -0.202684 0.257338 -0.157765
v -0.207027 0.240628 -0.065709
v -0.206459 0.266341 -0.061508
v -0.200049 0.232010 0.016385
v -0.196998 0.257483 0.019609
v -0.182889 0.219355 0.088824
v -0.185100 0.246770 0.097496
v -0.175334 0.000524 -0.014437
v -0.179900 0.023646 -0.017783
v -0.176076 0.030253 0.073960
v -0.182181 0.052420 0.067600
v -0.160987 0.069090 0.138553
v -0.167076 0.085600 0.124352
v -0.188646 0.219328 -0.259703
v -0.186258 0.193714 -0.250418
v -0.136074 0.149092 -0.346180
v -0.141788 0.133828 -0.324870
v 0.062678 0.254801 0.274328
v 0.074849 0.236710 0.272488
v -0.107145 0.070554 -0.341202
v -0.119548 0.094474 -0.339303
v -0.143361 0.099234 0.167946
v -0.149449 0.115744 0.153745
v -0.164140 0.206333 0.131211
v -0.166700 0.235918 0.135711
v -0.130001 0.115032 0.176958
v -0.140052 0.126518 0.162999
v 0.035859 0.233577 0.255819
v 0.048030 0.215486 0.253979
v -0.046482 0.408425 0.196980
v -0.014758 0.373980 0.220709
v -0.002640 0.403115 0.219920
v -0.035088 0.433972 0.195086
v -0.035692 0.415829 0.236275
v -0.035450 0.382831 0.214631
v -0.014708 0.420332 0.210104
v -0.088329 0.498163 0.089435
v -0.054481 0.438295 0.165424
v -0.010906 0.452918 0.184812
v -0.028674 0.539731 0.121296
v -0.129745 0.585914 0.199677
v -0.109684 0.538186 0.233341
v -0.085010 0.535586 0.244305
v -0.084306 0.587503 0.212607
v -0.085024 0.444935 0.125377
v 0.007180 0.488709 0.133273
v -0.079331 0.563198 0.230390
v -0.129534 0.568024 0.214078
vt 3.678819 0.026406
vt 3.678819 0.098207
vt 3.514349 0.098207
vt 3.514349 0.026406
vt 3.325009 0.026406
vt 3.325009 0.098207
vt 3.105606 0.098207
vt 3.105606 0.026406
vt 2.865262 0.026406
vt 2.865262 0.098207
vt 2.460813 0.098207
vt 2.460813 0.026406
vt 2.158925 0.098207
vt 2.158925 0.026406
vt 1.880055 0.026406
vt 1.880055 0.098207
vt 1.645828 0.098207
vt 1.645828 0.026406
vt 1.362424 0.026406
vt 1.362424 0.098207
vt 1.048706 0.098207
vt 1.048706 0.026406
vt 0.805232 0.026406
vt 0.805232 0.098207
vt 0.473557 0.098206
vt 0.473557 0.026406
vt 0.195946 0.026406
vt 0.195946 0.098206
vt 0.001921 0.098207
vt 0.001921 0.026406
vt 1.187593 0.024069
vt 1.187593 0.095036
vt 0.744178 0.095036
vt 0.744178 0.024070
vt 0.498898 0.026642
vt 0.498898 0.093881
vt 0.297325 0.093881
vt 0.297325 0.026642
vt 0.120861 0.093881
vt 0.120861 0.026642
vt -0.047560 0.093881
vt -0.047560 0.026642
vt 0.550640 0.095036
vt 0.550640 0.024069
vt 0.297751 0.024069
vt 0.297751 0.095036
vt 0.090318 0.095036
vt 0.090318 0.024069
vt 0.736156 0.026642
vt 0.736156 0.093881
vt 0.993361 0.026642
vt 0.977959 0.093881
vt 0.151588 0.186115
vt 0.248598 0.157310
vt 0.324919 0.476078
vt 0.028225 0.382654
vt 0.076898 0.261104
vt 0.186636 0.944459
vt 0.300641 0.757559
vt 0.241387 0.962078
vt 0.406208 0.213168
vt 0.307739 0.934462
vt 0.034408 0.562631
vt 0.305627 0.626272
vt 0.081761 0.741640
vt 3.819293 0.026406
vt 3.819293 0.098207
vt 0.503559 0.293480
vt 0.473151 0.803580
vt 0.551716 0.682019
vt 0.552785 0.387665
vt 0.577028 0.528025
vt 0.143905 0.153116
vt 0.244931 0.125639
vt 0.009132 0.373755
vt 0.059369 0.246712
vt 0.239090 0.988095
vt 0.174664 0.966833
vt 0.127679 0.918021
vt 0.058600 0.745059
vt 0.145235 0.900117
vt 0.411637 0.179117
vt 0.313551 0.958192
vt 0.011244 0.567347
vt 0.513373 0.262834
vt 0.576143 0.681934
vt 0.492245 0.818091
vt 0.574497 0.369816
vt 0.600622 0.527547
vt 1.663669 0.018567
vt 1.663669 0.095036
vt 1.491004 0.095036
vt 1.491004 0.024069
vt 0.606237 0.412491
vt 0.595689 0.334836
vt 0.763869 0.226954
vt 0.744940 0.411885
vt -0.032609 0.095036
vt -0.032609 0.024069
vt 3.678819 0.114760
vt 3.514349 0.114760
vt 3.511400 0.007204
vt 3.675869 0.007204
vt 3.325009 0.114760
vt 3.105606 0.114760
vt 3.102657 0.007204
vt 3.322060 0.007204
vt 2.865262 0.114760
vt 2.460813 0.114760
vt 2.457864 0.007204
vt 2.862312 0.007204
vt 2.158925 0.114760
vt 2.155976 0.007204
vt 1.880055 0.114760
vt 1.645828 0.114760
vt 1.642879 0.007204
vt 1.877105 0.007204
vt 1.362424 0.114760
vt 1.048706 0.114760
vt 1.045756 0.007204
vt 1.359475 0.007204
vt 0.805232 0.114760
vt 0.473557 0.114760
vt 0.470607 0.007204
vt 0.802283 0.007204
vt 0.195946 0.114760
vt 0.001921 0.107762
vt -0.001029 0.007204
vt 0.192997 0.007204
vt 1.187593 0.115953
vt 0.744178 0.115954
vt 0.744178 0.005741
vt 1.187593 0.005741
vt 0.498898 0.117982
vt 0.297325 0.117982
vt 0.297325 0.004473
vt 0.498898 0.004473
vt 0.120861 0.117982
vt 0.120861 0.004473
vt -0.047560 0.117982
vt -0.047560 0.004473
vt 0.550640 0.115954
vt 0.550640 0.005741
vt 0.297751 0.115954
vt 0.090318 0.115953
vt 0.090318 0.005741
vt 0.297751 0.005741
vt 0.736156 0.004473
vt 0.736156 0.117982
vt 0.992337 0.004473
vt 0.976854 0.117982
vt 3.816343 0.007204
vt 3.819293 0.114760
vt 1.663669 0.115953
vt 1.491004 0.115953
vt 1.491004 0.005741
vt 0.589532 0.324727
vt 0.755304 0.219588
vt 0.745099 0.423731
vt 0.606994 0.424301
vt -0.032609 0.115954
vt -0.032609 0.005741
vt -0.139600 0.117982
vt -0.139600 0.026642
vt -0.084781 0.024069
vt -0.084781 0.115954
vt 3.922737 0.098207
vt 3.919787 0.007204
vt 0.590177 0.988188
vt 0.593888 0.836166
vt 0.490690 0.845498
vt 0.513124 0.958411
vt 0.592280 0.894224
vt 0.693567 0.854592
vt 0.686211 0.951582
vt 0.658990 0.593826
vt 0.665209 0.679177
vt 0.612717 0.638711
vt 0.607005 0.595359
vt 0.701127 0.736484
vt 0.988363 0.817206
vt 0.948217 0.904256
vt 0.715219 0.811956
vt 0.908689 0.989688
vt 0.707836 0.862606
vt 0.864672 0.355033
vt 0.952677 0.441286
vt 0.691036 0.548692
vt 0.671026 0.492846
vt 0.922769 0.557317
vt 0.978842 0.696224
vt 0.701909 0.689948
vt 0.706607 0.607298
vn -0.0191 0.1412 0.9898
vn 0.1674 -0.1715 0.9709
vn 0.2694 -0.0110 0.9630
vn 0.0819 0.2729 0.9585
vn 0.3507 0.4178 0.8381
vn 0.5145 0.1591 0.8426
vn 0.7571 0.1557 0.6345
vn 0.6192 0.4324 0.6554
vn 0.8131 0.3868 0.4349
vn 0.9106 0.0965 0.4019
vn 0.9676 0.0510 0.2473
vn 0.8965 0.3595 0.2589
vn 0.9958 0.0295 0.0862
vn 0.9428 0.3281 0.0582
vn 0.9283 0.3183 -0.1923
vn 0.9877 0.0590 -0.1448
vn 0.8997 0.0684 -0.4311
vn 0.8191 0.3172 -0.4780
vn 0.6408 0.2746 -0.7169
vn 0.7094 0.0258 -0.7043
vn 0.4926 -0.0674 -0.8677
vn 0.3816 0.1811 -0.9064
vn 0.0775 0.0214 -0.9968
vn 0.2047 -0.2053 -0.9571
vn -0.0654 -0.3404 -0.9380
vn -0.1953 -0.1229 -0.9730
vn -0.4325 -0.1917 -0.8810
vn -0.2939 -0.4293 -0.8540
vn -0.5754 -0.4659 -0.6722
vn -0.7198 -0.2703 -0.6393
vn -0.9512 -0.1294 -0.2802
vn -0.8508 -0.4020 -0.3385
vn -0.9168 -0.3481 -0.1956
vn -0.9833 -0.0618 -0.1714
vn -0.9833 0.1299 -0.1275
vn -0.9855 -0.1619 -0.0514
vn -0.9943 -0.1049 0.0212
vn -0.9779 0.2054 0.0388
vn -0.9834 -0.1264 0.1300
vn -0.9729 0.1646 0.1623
vn -0.9539 -0.1878 0.2341
vn -0.9586 0.0245 0.2836
vn -0.9339 -0.3517 0.0636
vn -0.9990 -0.0445 -0.0086
vn -0.9915 -0.0463 0.1213
vn -0.9166 -0.3340 0.2196
vn -0.8636 -0.1955 0.4647
vn -0.9553 0.0589 0.2898
vn -0.9484 0.0030 -0.3170
vn -0.9432 -0.2611 -0.2055
vn -0.8668 -0.1539 -0.4744
vn -0.8915 -0.3161 -0.3244
vn -0.7766 -0.1774 0.6045
vn -0.8001 -0.1349 0.5845
vn -0.5725 -0.0582 0.8178
vn -0.6538 -0.1008 0.7499
vn -0.7699 -0.1633 0.6169
vn -0.1264 -0.0783 0.9889
vn -0.3483 -0.0503 0.9360
vn 0.0595 -0.0646 0.9961
vn -0.8152 -0.0040 0.5792
vn 0.0386 -0.1404 0.9893
vn -0.4451 -0.0430 0.8944
vn -0.4192 -0.0353 0.9072
vn -0.3245 -0.0374 0.9452
vn -0.2122 -0.0628 0.9752
vn -0.0696 -0.2938 0.9533
vn -0.7989 -0.0637 0.5980
vn -0.2314 -0.0666 0.9706
vn -0.3475 -0.0089 0.9376
vn -0.7345 -0.1048 0.6705
vn -0.4714 -0.0248 0.8816
vn -0.9856 0.0835 0.1469
vn -0.9777 -0.0924 0.1883
vn -0.5871 0.6496 0.4831
vn -0.8644 0.4453 0.2334
vn 0.6878 -0.0284 0.7253
vn 0.5788 0.3306 0.7454
vn 0.2659 0.6916 0.6716
vn 0.0533 0.7626 0.6446
vn -0.1750 -0.0180 0.9844
vn -0.9604 -0.1792 0.2134
vn 0.6469 -0.4629 0.6060
vn -0.1918 0.7512 0.6316
vn -0.9012 -0.3557 0.2474
vn 0.0701 -0.8002 0.5956
vn 0.5148 -0.6506 0.5583
vn -0.7456 -0.5013 0.4391
vn -0.3653 -0.7331 0.5737
vn -0.7638 -0.4777 -0.4340
vn -0.8763 -0.3058 -0.3722
vn -0.7962 -0.0134 0.6049
vn -0.8832 0.2227 0.4126
vn 0.5405 -0.8404 -0.0406
vn 0.5245 -0.8514 0.0009
vn -0.5368 0.8437 0.0037
vn -0.5314 0.8461 0.0416
vn 0.5036 -0.8640 -0.0003
vn 0.4360 -0.8979 -0.0602
vn -0.4443 0.8933 0.0680
vn -0.5175 0.8557 0.0079
vn 0.3181 -0.9424 -0.1036
vn 0.2352 -0.9705 -0.0530
vn -0.2335 0.9710 0.0522
vn -0.3176 0.9430 0.0988
vn 0.1879 -0.9779 0.0920
vn -0.1892 0.9792 -0.0728
vn 0.2380 -0.9505 0.1997
vn 0.3373 -0.9155 0.2193
vn -0.3432 0.9122 -0.2240
vn -0.2356 0.9549 -0.1809
vn 0.4258 -0.8802 0.2095
vn 0.4852 -0.8525 0.1947
vn -0.4768 0.8581 -0.1904
vn -0.4296 0.8766 -0.2169
vn 0.5125 -0.8441 0.1576
vn 0.5084 -0.8508 0.1329
vn -0.5066 0.8518 -0.1333
vn -0.5066 0.8479 -0.1565
vn 0.4834 -0.8690 0.1060
vn 0.5017 -0.8646 -0.0271
vn -0.2319 0.9236 -0.3053
vn -0.4786 0.8729 -0.0945
vn 0.3338 -0.9218 -0.1971
vn 0.2402 -0.9679 -0.0741
vn -0.2431 0.9659 0.0887
vn -0.3249 0.9222 0.2100
vn 0.0607 -0.9646 0.2565
vn 0.0217 -0.9996 -0.0184
vn -0.0235 0.9997 -0.0037
vn -0.0639 0.9693 -0.2376
vn 0.0005 -0.9905 -0.1372
vn 0.0098 0.9926 0.1212
vn 0.0065 -0.9783 -0.2070
vn 0.0262 0.9878 0.1537
vn 0.1906 -0.9538 0.2324
vn -0.1909 0.9539 -0.2317
vn 0.2222 -0.8978 0.3803
vn 0.2561 -0.8165 0.5174
vn -0.2556 0.8188 -0.5140
vn -0.2199 0.9018 -0.3721
vn -0.0266 0.8638 -0.5032
vn 0.0272 -0.8596 0.5102
vn 0.0236 0.8062 -0.5912
vn -0.0906 -0.6965 0.7118
vn -0.5735 0.8164 0.0683
vn 0.5891 -0.8051 -0.0686
vn 0.4713 -0.8539 -0.2206
vn -0.4788 0.6522 0.5877
vn 0.2772 -0.7268 0.6285
vn -0.2706 0.7495 -0.6042
vn -0.9133 -0.1665 0.3716
vn -0.9137 -0.1590 0.3740
vn -0.7499 0.2125 0.6265
vn -0.7428 0.1974 0.6397
vn -0.3461 -0.3289 0.8787
vn -0.3527 -0.3209 0.8790
vn 0.3634 -0.2619 -0.8941
vn 0.4011 -0.2841 -0.8709
vn 0.2831 -0.2142 -0.9349
vn -0.8336 -0.3072 0.4590
vn -0.7257 -0.3811 0.5729
vn -0.4333 -0.4965 0.7521
vn 0.3954 -0.1399 0.9078
vn 0.5202 0.6680 0.5321
vn 0.3974 0.7965 0.4557
vn 0.3972 0.7967 0.4556
vn -0.8956 0.4119 0.1683
vn 0.4615 -0.3195 -0.8276
vn 0.2974 0.8721 0.3885
vn -0.9346 -0.1999 0.2943
vn -0.2507 0.4935 0.8328
vn -0.2371 0.5324 0.8126
vn -0.2710 0.4304 0.8610
vn -0.9377 -0.3468 -0.0195
vn -0.9103 -0.4087 0.0657
vn -0.7687 -0.5604 0.3084
vn -0.2079 -0.6546 0.7268
vn 0.7938 0.2667 0.5465
vn 0.8133 0.3848 0.4365
vn 0.8146 0.4073 0.4130
vn -0.0832 0.8080 -0.5833
vn 0.8033 0.5371 0.2575
vn -0.2216 0.5740 0.7883
vn -0.9586 -0.1945 -0.2079
usemtl v_means_venom
s 1
f 94/1/1 95/2/2 96/3/3 97/4/4
f 99/5/5 98/6/6 100/7/7 101/8/8
f 103/9/9 102/10/10 104/11/11 105/12/12
f 105/12/12 104/11/11 106/13/13 107/14/14
f 109/15/15 108/16/16 110/17/17 111/18/18
f 113/19/19 112/20/20 114/21/21 115/22/22
f 117/23/23 116/24/24 118/25/25 119/26/26
f 121/27/27 120/28/28 122/29/29 123/30/30
f 125/31/31 124/32/32 126/33/33 127/34/34
f 129/35/35 128/36/36 130/37/37 131/38/38
f 131/38/38 130/37/37 132/39/39 133/40/40
f 133/40/40 132/39/39 134/41/41 135/42/42
f 127/34/34 126/33/33 136/43/43 137/44/44
f 139/45/45 138/46/46 140/47/47 141/48/48
f 128/36/36 129/35/35 142/49/49 143/50/50
f 143/50/50 142/49/49 144/51/51 145/52/52
f 50/53/53 49/54/54 51/55/55 52/56/56 69/57/57
f 79/58/58 54/59/59 55/60/60
f 57/61/61 51/55/55 49/54/54
f 55/60/60 54/59/59 58/62/62
f 64/63/63 65/64/64 54/59/59 53/65/65
f 95/2/2 94/1/1 146/66/66 147/67/67
f 51/55/55 57/61/61 59/68/68
f 60/69/69 54/59/59 65/64/64 66/70/70
f 58/62/62 54/59/59 60/69/69
f 51/55/55 62/71/71 61/72/72
f 28/73/73 27/74/74 49/54/54 50/53/53
f 39/75/75 68/76/76 69/57/57 52/56/56
f 37/77/77 78/78/78 79/58/58 55/60/60
f 38/79/79 43/80/80 53/65/65 56/81/81
f 27/74/74 45/82/82 57/61/61 49/54/54
f 42/83/83 37/77/77 55/60/60 58/62/62
f 43/80/80 63/84/84 64/63/63 53/65/65
f 45/82/82 46/85/85 59/68/68 57/61/61
f 66/70/70 67/86/86 44/87/87 60/69/69
f 44/87/87 42/83/83 58/62/62 60/69/69
f 46/85/85 40/88/88 62/71/71 59/68/68
f 40/88/88 41/89/89 61/72/72 62/71/71
f 64/63/63 63/84/84 39/75/75 52/56/56
f 52/56/56 51/55/55 65/64/64 64/63/63
f 66/70/70 65/64/64 51/55/55 61/72/72
f 41/89/89 67/86/86 66/70/70 61/72/72
f 69/57/57 68/76/76 28/73/73 50/53/53
f 123/90/30 122/91/29 148/92/90 149/93/91
f 149/93/91 148/92/90 124/32/32 125/31/31
f 145/94/52 144/95/51 123/96/30 149/97/91
f 97/4/4 96/3/3 98/6/6 99/5/5
f 101/8/8 100/7/7 102/10/10 103/9/9
f 79/58/58 78/78/78 38/79/79 56/81/81
f 53/65/65 54/59/59 79/58/58 56/81/81
f 107/14/14 106/13/13 108/16/16 109/15/15
f 141/48/48 140/47/47 150/98/92 151/99/93
f 119/26/26 118/25/25 120/28/28 121/27/27
f 111/18/18 110/17/17 112/20/20 113/19/19
f 115/22/22 114/21/21 116/24/24 117/23/23
f 137/44/44 136/43/43 138/46/46 139/45/45
f 2/100/94 74/101/95 96/3/3 95/2/2
f 75/102/96 1/103/97 94/1/1 97/4/4
f 3/104/98 76/105/99 100/7/7 98/6/6
f 77/106/100 4/107/101 99/5/5 101/8/8
f 5/108/102 7/109/103 104/11/11 102/10/10
f 8/110/104 6/111/105 103/9/9 105/12/12
f 7/109/103 80/112/106 106/13/13 104/11/11
f 81/113/107 8/110/104 105/12/12 107/14/14
f 9/114/108 86/115/109 110/17/17 108/16/16
f 87/116/110 10/117/111 109/15/15 111/18/18
f 11/118/112 90/119/113 114/21/21 112/20/20
f 91/120/114 12/121/115 113/19/19 115/22/22
f 13/122/116 84/123/117 118/25/25 116/24/24
f 85/124/118 14/125/119 117/23/23 119/26/26
f 15/126/120 70/127/121 122/29/29 120/28/28
f 71/128/122 16/129/123 121/27/27 123/30/30
f 17/130/124 19/131/125 126/33/33 124/32/32
f 20/132/126 18/133/127 125/31/31 127/34/34
f 21/134/128 23/135/129 130/37/37 128/36/36
f 24/136/130 22/137/131 129/35/35 131/38/38
f 23/135/129 25/138/132 132/39/39 130/37/37
f 26/139/133 24/136/130 131/38/38 133/40/40
f 25/138/132 88/140/134 134/41/41 132/39/39
f 89/141/135 26/139/133 133/40/40 135/42/42
f 19/131/125 92/142/136 136/43/43 126/33/33
f 93/143/137 20/132/126 127/34/34 137/44/44
f 29/144/138 31/145/139 140/47/47 138/46/46
f 32/146/140 30/147/141 139/45/45 141/48/48
f 22/137/131 34/148/142 142/49/49 129/35/35
f 33/149/143 21/134/128 128/36/36 143/50/50
f 34/148/142 36/150/144 144/51/51 142/49/49
f 35/151/145 33/149/143 143/50/50 145/52/52
f 1/103/97 47/152/146 146/66/66 94/1/1
f 48/153/147 2/100/94 95/2/2 147/67/67
f 70/154/121 72/155/148 148/92/90 122/91/29
f 72/155/148 17/130/124 124/32/32 148/92/90
f 18/133/127 73/156/149 149/93/91 125/31/31
f 36/157/144 71/158/122 123/96/30 144/95/51
f 73/159/149 35/160/145 145/94/52 149/97/91
f 74/101/95 3/104/98 98/6/6 96/3/3
f 4/107/101 75/102/96 97/4/4 99/5/5
f 76/105/99 5/108/102 102/10/10 100/7/7
f 6/111/105 77/106/100 101/8/8 103/9/9
f 80/112/106 9/114/108 108/16/16 106/13/13
f 10/117/111 81/113/107 107/14/14 109/15/15
f 31/145/139 82/161/150 150/98/92 140/47/47
f 83/162/151 32/146/140 141/48/48 151/99/93
f 84/123/117 15/126/120 120/28/28 118/25/25
f 16/129/123 85/124/118 119/26/26 121/27/27
f 86/115/109 11/118/112 112/20/20 110/17/17
f 12/121/115 87/116/110 111/18/18 113/19/19
f 90/119/113 13/122/116 116/24/24 114/21/21
f 14/125/119 91/120/114 115/22/22 117/23/23
f 92/142/136 29/144/138 138/46/46 136/43/43
f 30/147/141 93/143/137 137/44/44 139/45/45
f 134/41/41 88/140/134 152/163/152
f 135/42/42 134/41/41 152/163/152 153/164/153
f 135/42/42 153/164/153 89/141/135
f 83/162/151 151/99/93 155/165/154
f 151/99/93 150/98/92 154/166/155 155/165/154
f 150/98/92 82/161/150 154/166/155
f 48/153/147 147/67/67 157/167/156
f 147/67/67 146/66/66 156/168/157 157/167/156
f 146/66/66 47/152/146 156/168/157
f 51/55/55 59/68/68 62/71/71
f 163/169/158 164/170/159 160/171/160 159/172/160
f 162/173/161 163/169/162 159/172/163
f 159/172/164 160/171/164 162/173/164
f 160/171/165 164/170/166 162/173/167
f 161/174/168 158/175/168 162/173/168
f 158/175/169 161/174/169 164/170/159 163/169/158
f 162/173/167 164/170/166 161/174/170
f 158/175/171 163/169/162 162/173/161
f 175/176/172 176/177/173 170/178/174 171/179/174
f 176/180/175 173/181/176 166/182/177 170/183/177
f 166/182/178 167/184/178 171/185/178 170/183/178
f 167/186/179 174/187/180 175/188/181 171/189/179
f 168/190/182 165/191/182 169/192/182 172/193/182
f 175/188/181 174/187/180 168/190/183 172/193/183
f 169/192/184 176/177/173 175/176/172 172/193/184
f 165/191/185 173/181/176 176/180/175 169/192/185
